<svg width="157" height="18" viewBox="0 0 157 18" fill="none" xmlns="http://www.w3.org/2000/svg">
<path d="M5.964 13.196C4.47067 13.196 3.22933 12.72 2.24 11.768C1.24133 10.7973 0.742 9.57467 0.742 8.1C0.742 6.60667 1.24133 5.384 2.24 4.432C3.22933 3.48 4.494 3.004 6.034 3.004C7.16333 3.004 8.14333 3.25133 8.974 3.746V5.734C8.06867 5.174 7.13533 4.894 6.174 4.894C5.17533 4.894 4.36333 5.19267 3.738 5.79C3.11267 6.378 2.8 7.162 2.8 8.142C2.8 9.11267 3.10333 9.88733 3.71 10.466C4.31667 11.0447 5.068 11.334 5.964 11.334C6.82267 11.334 7.48067 11.1193 7.938 10.69V7.316H9.954V11.642C9.534 12.09 8.974 12.4587 8.274 12.748C7.546 13.0467 6.776 13.196 5.964 13.196ZM19.1604 13H11.8104V3.2H19.0064V5.006H13.8264V6.896H17.9984V8.674H13.8264V11.194H19.1604V13ZM20.1075 5.006V3.2H28.3255V5.006H25.2175V13H23.2015V5.006H20.1075ZM33.9747 13H31.8607L36.0607 3.144H37.9927L42.1927 13H40.0507L39.0847 10.732H34.9407L33.9747 13ZM37.0127 5.664L35.5707 9.066H38.4407L37.0127 5.664ZM45.4622 13H43.4882V3.2H45.2102L50.1522 9.472V3.2H52.1122V13H50.4462L45.4622 6.7V13ZM59.887 13H57.871V3.2H65.053V5.006H59.887V6.994H63.877V8.772H59.887V13ZM68.678 13H66.662V3.2H71.198C72.2433 3.2 73.0647 3.47067 73.662 4.012C74.2687 4.544 74.572 5.23933 74.572 6.098C74.572 6.75133 74.39 7.32067 74.026 7.806C73.6713 8.282 73.1767 8.618 72.542 8.814L75.566 13H73.228L70.372 9.038H68.678V13ZM68.678 4.964V7.344H71.086C71.5433 7.344 71.898 7.24133 72.15 7.036C72.4113 6.83067 72.542 6.53667 72.542 6.154C72.542 5.78067 72.4113 5.49133 72.15 5.286C71.898 5.07133 71.5433 4.964 71.086 4.964H68.678ZM84.2385 13H76.8885V3.2H84.0845V5.006H78.9045V6.896H83.0765V8.674H78.9045V11.194H84.2385V13ZM93.1936 13H85.8436V3.2H93.0396V5.006H87.8596V6.896H92.0316V8.674H87.8596V11.194H93.1936V13ZM97.0255 5.006V3.2H105.243V5.006H102.135V13H100.119V5.006H97.0255ZM108.764 13H106.748V3.2H111.284C112.329 3.2 113.151 3.47067 113.748 4.012C114.355 4.544 114.658 5.23933 114.658 6.098C114.658 6.75133 114.476 7.32067 114.112 7.806C113.757 8.282 113.263 8.618 112.628 8.814L115.652 13H113.314L110.458 9.038H108.764V13ZM108.764 4.964V7.344H111.172C111.629 7.344 111.984 7.24133 112.236 7.036C112.497 6.83067 112.628 6.53667 112.628 6.154C112.628 5.78067 112.497 5.49133 112.236 5.286C111.984 5.07133 111.629 4.964 111.172 4.964H108.764ZM119.046 13H117.044V3.2H119.046V13ZM122.527 13H120.413L124.613 3.144H126.545L130.745 13H128.603L127.637 10.732H123.493L122.527 13ZM125.565 5.664L124.123 9.066H126.993L125.565 5.664ZM139.027 13H132.041V3.2H134.057V11.194H139.027V13Z" fill="#3E74FF"/>
<path d="M0 15.8H139.405V16.5H0V15.8Z" fill="#3E74FF"/>
<path d="M152.562 4.19887L156.805 8.51989C157.065 8.78505 157.065 9.21495 156.805 9.48011L152.562 13.8011C152.302 14.0663 151.88 14.0663 151.619 13.8011C151.359 13.536 151.359 13.1061 151.619 12.8409L154.724 9.67898L145.667 9.67898C145.298 9.67898 145 9.37499 145 9C145 8.62501 145.298 8.32102 145.667 8.32102L154.724 8.32102L151.619 5.1591C151.359 4.89394 151.359 4.46403 151.619 4.19887C151.88 3.93371 152.302 3.93371 152.562 4.19887Z" fill="#3E74FF"/>
</svg>
