<svg width="145" height="25" viewBox="0 0 145 25" fill="none" xmlns="http://www.w3.org/2000/svg">
<path d="M13.328 24.1699C9.54999 24.1699 6.37832 23.0411 3.813 20.7834C1.271 18.5037 0 15.6042 0 12.0849C0 8.54356 1.28266 5.64406 3.84798 3.38644C6.38998 1.12881 9.63161 0 13.5729 0C16.1149 0 18.4936 0.55334 20.7091 1.66002V7.27088C18.447 6.0978 16.2198 5.51126 14.0276 5.51126C11.8121 5.51126 9.99309 6.131 8.5705 7.37048C7.17124 8.60996 6.4716 10.2146 6.4716 12.1845C6.4716 14.243 7.13626 15.8698 8.46556 17.065C9.79486 18.2602 11.4157 18.8578 13.328 18.8578C14.9605 18.8578 16.2548 18.4926 17.211 17.7622V10.1593H23.5426V20.4846C22.5632 21.5028 21.1522 22.377 19.3099 23.1075C17.4209 23.8157 15.4269 24.1699 13.328 24.1699Z" fill="#494949"/>
<path d="M39.7285 16.9986H28.4294V11.8193H39.7285V16.9986Z" fill="#494949"/>
<path d="M58.2581 24.1699C54.3402 24.1699 51.0869 23.0411 48.4982 20.7834C45.9096 18.5258 44.6153 15.6263 44.6153 12.0849C44.6153 8.54356 45.8979 5.64406 48.4632 3.38644C51.0519 1.12881 54.3052 0 58.2231 0C60.5552 0 62.6658 0.442672 64.5548 1.32802V7.20448C62.6425 6.07567 60.5552 5.51126 58.2931 5.51126C56.2408 5.51126 54.5267 6.131 53.1508 7.37048C51.7748 8.60996 51.0869 10.1814 51.0869 12.0849C51.0869 14.0327 51.7865 15.6152 53.1858 16.8326C54.6083 18.0499 56.3924 18.6586 58.538 18.6586C61.1033 18.6586 63.2488 18.0389 64.9746 16.7994V22.7091C62.969 23.6829 60.7301 24.1699 58.2581 24.1699Z" fill="#494949"/>
<path d="M73.5407 23.7051H66.8942L77.1788 0.332003H83.2306L93.5152 23.7051H86.7638L84.6998 18.7914H75.6046L73.5407 23.7051ZM80.1522 7.80209L77.5986 14.0106H82.7059L80.1522 7.80209Z" fill="#494949"/>
<path d="M102.514 23.7051H96.2176V0.464805H107.727C110.432 0.464805 112.566 1.13988 114.128 2.49003C115.737 3.81804 116.542 5.53339 116.542 7.63609C116.542 9.14117 116.122 10.4692 115.283 11.6201C114.443 12.7711 113.277 13.6232 111.784 14.1766L119.2 23.7051H111.959L105.033 14.8406H102.514V23.7051ZM102.514 5.51126V9.96011H107.377C108.24 9.96011 108.916 9.77198 109.406 9.39571C109.919 8.9973 110.175 8.45503 110.175 7.76889C110.175 7.08275 109.919 6.54047 109.406 6.14207C108.916 5.72153 108.24 5.51126 107.377 5.51126H102.514Z" fill="#494949"/>
<path d="M131.462 23.7051H121.702V0.464805H131.462C135.427 0.464805 138.68 1.54935 141.222 3.71844C143.741 5.88753 145 8.67636 145 12.0849C145 15.5378 143.741 18.3377 141.222 20.4846C138.727 22.6316 135.473 23.7051 131.462 23.7051ZM127.999 5.71046V18.4594H131.007C133.386 18.4594 135.228 17.9061 136.534 16.7994C137.84 15.6927 138.493 14.1212 138.493 12.0849C138.493 10.0486 137.84 8.47716 136.534 7.37048C135.228 6.2638 133.386 5.71046 131.007 5.71046H127.999Z" fill="#494949"/>
</svg>
