<svg width="96" height="16" viewBox="0 0 96 16" fill="none" xmlns="http://www.w3.org/2000/svg">
<path d="M1.73517 12.6135H0.475828V4.59565H1.73517V12.6135ZM0.475828 2.43762C0.312581 2.27162 0.230957 2.07242 0.230957 1.84002C0.230957 1.60762 0.312581 1.40841 0.475828 1.24241C0.650737 1.07641 0.860626 0.993408 1.1055 0.993408C1.35037 0.993408 1.56026 1.07641 1.73517 1.24241C1.91008 1.40841 1.99753 1.60762 1.99753 1.84002C1.99753 2.07242 1.91008 2.27162 1.73517 2.43762C1.56026 2.59256 1.35037 2.67003 1.1055 2.67003C0.860626 2.67003 0.650737 2.59256 0.475828 2.43762Z" fill="#494949"/>
<path d="M4.7895 7.20188V12.6135H3.53016V4.59565H4.7895V5.82406C5.68736 4.87232 6.81261 4.39645 8.16523 4.39645C9.20302 4.39645 9.99593 4.68972 10.544 5.27626C11.1037 5.85173 11.3835 6.67067 11.3835 7.73308V12.6135H10.1242V7.99869C10.1242 6.34973 9.32545 5.52526 7.72796 5.52526C7.14493 5.52526 6.57939 5.69679 6.03135 6.03986C5.47164 6.38294 5.05769 6.77027 4.7895 7.20188Z" fill="#494949"/>
<path d="M15.6749 12.8127C14.9986 12.8127 14.334 12.7353 13.681 12.5803C13.0397 12.4143 12.5383 12.2151 12.1768 11.9827V10.7543C13.2029 11.4073 14.3573 11.7337 15.64 11.7337C16.3629 11.7337 16.9284 11.6231 17.3366 11.4017C17.7563 11.1693 17.9662 10.8539 17.9662 10.4555C17.9662 10.1124 17.768 9.83024 17.3715 9.6089C17.2549 9.52037 16.9576 9.42077 16.4795 9.3101C16.3396 9.26583 16.1472 9.22157 15.9023 9.1773C15.5875 9.09983 15.3951 9.05556 15.3251 9.0445C14.264 8.78996 13.5061 8.49116 13.0513 8.14809C12.5966 7.79395 12.3692 7.28488 12.3692 6.62087C12.3692 5.92366 12.6665 5.38139 13.2612 4.99405C13.8559 4.59565 14.6896 4.39645 15.7624 4.39645C17.0334 4.39645 18.0595 4.63438 18.8408 5.11025V6.28887C17.8846 5.7466 16.876 5.47546 15.8149 5.47546C15.1036 5.47546 14.5614 5.58059 14.1882 5.79086C13.8267 6.00113 13.646 6.28887 13.646 6.65407C13.646 7.05248 13.8617 7.35128 14.2932 7.55048C14.3748 7.57262 14.4739 7.61135 14.5905 7.66668C14.7188 7.71095 14.847 7.74968 14.9753 7.78288L15.3601 7.88249C15.64 7.97102 15.9198 8.03189 16.1997 8.06509C17.2491 8.30856 18.0187 8.60736 18.5084 8.9615C19.0099 9.31563 19.2606 9.81917 19.2606 10.4721C19.2606 11.2025 18.9224 11.7725 18.2461 12.1819C17.5698 12.6025 16.7127 12.8127 15.6749 12.8127Z" fill="#494949"/>
<path d="M21.5657 11.3353V15.9336H20.3063V4.59565H21.5657V5.87386C22.3586 4.88892 23.4488 4.39645 24.8364 4.39645C26.0841 4.39645 27.1044 4.80592 27.8973 5.62486C28.6902 6.4438 29.0867 7.43428 29.0867 8.59629C29.0867 9.76937 28.6902 10.7654 27.8973 11.5843C27.1044 12.4033 26.0841 12.8127 24.8364 12.8127C23.4488 12.8127 22.3586 12.3203 21.5657 11.3353ZM21.5657 7.28488V9.92431C21.8105 10.4555 22.207 10.8927 22.755 11.2357C23.3031 11.5677 23.8978 11.7337 24.5391 11.7337C25.4836 11.7337 26.259 11.4349 26.8654 10.8373C27.4834 10.2176 27.7924 9.47057 27.7924 8.59629C27.7924 7.72202 27.4834 6.98054 26.8654 6.37187C26.259 5.77426 25.4836 5.47546 24.5391 5.47546C23.9094 5.47546 23.3206 5.64699 22.7725 5.99006C22.2245 6.32207 21.8222 6.75367 21.5657 7.28488Z" fill="#494949"/>
<path d="M31.4784 12.6135H30.2191V4.59565H31.4784V12.6135ZM30.2191 2.43762C30.0558 2.27162 29.9742 2.07242 29.9742 1.84002C29.9742 1.60762 30.0558 1.40841 30.2191 1.24241C30.394 1.07641 30.6039 0.993408 30.8488 0.993408C31.0936 0.993408 31.3035 1.07641 31.4784 1.24241C31.6533 1.40841 31.7408 1.60762 31.7408 1.84002C31.7408 2.07242 31.6533 2.27162 31.4784 2.43762C31.3035 2.59256 31.0936 2.67003 30.8488 2.67003C30.6039 2.67003 30.394 2.59256 30.2191 2.43762Z" fill="#494949"/>
<path d="M34.5328 12.6135H33.2734V4.59565H34.5328V6.12287C34.8476 5.60273 35.314 5.18772 35.932 4.87785C36.55 4.55691 37.203 4.39645 37.891 4.39645V5.60826C37.5062 5.60826 37.1564 5.65806 36.8416 5.75766C36.3052 5.89046 35.8329 6.12287 35.4248 6.45487C35.0167 6.77581 34.7193 7.14101 34.5328 7.55048V12.6135Z" fill="#494949"/>
<path d="M42.3711 12.8127C41.0535 12.8127 39.9457 12.4199 39.0479 11.6341C38.1617 10.8595 37.7186 9.85237 37.7186 8.61289C37.7186 7.41768 38.115 6.41614 38.9079 5.60826C39.7125 4.80038 40.7445 4.39645 42.0038 4.39645C42.6801 4.39645 43.2806 4.52925 43.8054 4.79485C44.3301 5.04939 44.744 5.38692 45.0472 5.80746C45.3504 6.228 45.5778 6.67621 45.7294 7.15208C45.8809 7.61688 45.9567 8.08722 45.9567 8.56309V8.8951H39.0129C39.0828 9.75831 39.4443 10.45 40.0973 10.9701C40.762 11.4792 41.6015 11.7337 42.616 11.7337C43.5955 11.7337 44.4992 11.4847 45.3271 10.9867V12.0491C44.6391 12.5582 43.6538 12.8127 42.3711 12.8127ZM39.0304 7.91569H44.6799C44.6449 7.29595 44.4001 6.73707 43.9453 6.23907C43.5139 5.72999 42.8492 5.47546 41.9513 5.47546C41.1118 5.47546 40.4238 5.71893 39.8874 6.20587C39.3627 6.70387 39.077 7.27381 39.0304 7.91569Z" fill="#494949"/>
<path d="M53.4946 12.8127C52.7133 12.8127 52.1186 12.5969 51.7105 12.1653C51.3141 11.7227 51.1158 11.114 51.1158 10.3393V5.64146H49.1219V4.59565H51.1158V2.12222H52.3752V4.59565H55.3311V5.64146H52.3752V9.97411C52.3752 10.616 52.486 11.0587 52.7075 11.3021C52.9407 11.5567 53.3197 11.6839 53.8444 11.6839C54.3575 11.6839 54.8181 11.5733 55.2262 11.3519V12.4475C54.8647 12.691 54.2875 12.8127 53.4946 12.8127Z" fill="#494949"/>
<path d="M56.7465 5.64146C57.5977 4.81145 58.6938 4.39645 60.0348 4.39645C61.3758 4.39645 62.4718 4.81145 63.3231 5.64146C64.1743 6.44934 64.5999 7.43981 64.5999 8.61289C64.5999 9.78597 64.1743 10.7765 63.3231 11.5843C62.4602 12.4033 61.3641 12.8127 60.0348 12.8127C58.7055 12.8127 57.6094 12.4033 56.7465 11.5843C55.8953 10.7765 55.4697 9.78597 55.4697 8.61289C55.4697 7.43981 55.8953 6.44934 56.7465 5.64146ZM63.3056 8.61289C63.3056 7.72755 62.9966 6.98054 62.3786 6.37187C61.7606 5.77426 60.9793 5.47546 60.0348 5.47546C59.0903 5.47546 58.309 5.77426 57.691 6.37187C57.073 6.98054 56.764 7.72755 56.764 8.61289C56.764 9.48717 57.073 10.2286 57.691 10.8373C58.309 11.4349 59.0903 11.7337 60.0348 11.7337C60.9793 11.7337 61.7606 11.4349 62.3786 10.8373C62.9966 10.2286 63.3056 9.48717 63.3056 8.61289Z" fill="#494949"/>
<path d="M68.7586 12.6135V0.993408H70.018V5.87386C70.8109 4.88892 71.9011 4.39645 73.2887 4.39645C74.5364 4.39645 75.5567 4.80592 76.3496 5.62486C77.1425 6.4438 77.539 7.43981 77.539 8.61289C77.539 9.77491 77.1425 10.7654 76.3496 11.5843C75.5567 12.4033 74.5364 12.8127 73.2887 12.8127C71.9011 12.8127 70.8109 12.3203 70.018 11.3353V12.6135H68.7586ZM70.018 7.28488V9.92431C70.2745 10.4555 70.6768 10.8927 71.2248 11.2357C71.7729 11.5677 72.3617 11.7337 72.9914 11.7337C73.9359 11.7337 74.7113 11.4349 75.3177 10.8373C75.9357 10.2286 76.2447 9.48717 76.2447 8.61289C76.2447 7.73862 75.9357 6.99714 75.3177 6.38847C74.7113 5.7798 73.9359 5.47546 72.9914 5.47546C72.3501 5.47546 71.7554 5.64699 71.2073 5.99006C70.6593 6.32207 70.2628 6.75367 70.018 7.28488Z" fill="#494949"/>
<path d="M84.9331 10.0073V4.59565H86.1924V12.6135H84.9331V11.3851C84.0352 12.3369 82.91 12.8127 81.5574 12.8127C80.5196 12.8127 79.7208 12.525 79.1611 11.9495C78.6131 11.363 78.3391 10.5385 78.3391 9.4761V4.59565H79.5984V9.2105C79.5984 10.8595 80.3972 11.6839 81.9947 11.6839C82.5777 11.6839 83.1374 11.5179 83.6738 11.1859C84.2451 10.8318 84.6649 10.4389 84.9331 10.0073Z" fill="#494949"/>
<path d="M88.2446 16C87.6383 16 87.1893 15.9225 86.8978 15.7676V14.6554C87.2593 14.8324 87.6441 14.921 88.0522 14.921C88.5653 14.921 89.0084 14.7162 89.3815 14.3068C89.7546 13.9084 90.1453 13.2443 90.5534 12.3147L86.7929 4.59565H88.1921L91.1831 10.9037L94.0865 4.59565H95.4508L91.2705 13.5099C90.5126 15.17 89.504 16 88.2446 16Z" fill="#494949"/>
</svg>
